PathFileType	4	(X/Y/Z)	OpenSim_Sub06_EMGStiffKnee_Magnet.trc
DataRate	CameraRate	NumFrames	NumMarkers	Units	OrigDataRate	OrigDataStartFrame	OrigNumFrames
100	100	23	8	m	100	4754	5432
Frame#	Time	torso_imu_offset_imu	pelvis_imu_offset_imu	tibia_r_imu_offset_imu	femur_r_imu_offset_imu	tibia_l_imu_offset_imu	femur_l_imu_offset_imu	toes_r_imu_offset_imu	toes_l_imu_offset_imu
				X1	Y1	Z1	X2	Y2	Z2	X3	Y3	Z3	X4	Y4	Z4	X5	Y5	Z5	X6	Y6	Z6	X7	Y7	Z7	X8		Y8	Z8	

4754	47.53000000	-0.92651400	-0.13525400	0.10302700	-0.49316400	0.18286100	-0.75585900	-0.62573200	-0.42797900	-0.20654300	-0.77246100	-0.22094700	0.14062500	-0.48095700	0.65918000	0.04174800	-0.61157200	0.43017600	0.33349600	-0.59130900	-0.16430700	-0.48632800	-0.73950200	-0.00903300	-0.37744100
4755	47.54000000	-0.92871100	-0.13305700	0.08984400	-0.49755900	0.18090800	-0.75805700	-0.61914100	-0.43408200	-0.21093800	-0.76391600	-0.23339800	0.15722700	-0.45898400	0.67236300	0.04077100	-0.60961900	0.43237300	0.33569300	-0.59106400	-0.17456100	-0.48828100	-0.74194300	-0.00024400	-0.35742200
4756	47.55000000	-0.93090800	-0.13110400	0.09179700	-0.49975600	0.18066400	-0.75341800	-0.61669900	-0.44677700	-0.19702100	-0.76171900	-0.23535200	0.15722700	-0.44360400	0.68335000	0.03784200	-0.61596700	0.42797900	0.34033200	-0.58911100	-0.17260700	-0.48193400	-0.74902300	0.00610400	-0.34619100
4757	47.56000000	-0.93090800	-0.12670900	0.08520500	-0.49585000	0.19555700	-0.74707000	-0.60351600	-0.46557600	-0.17407200	-0.75952100	-0.23754900	0.15283200	-0.42846700	0.69653300	0.04126000	-0.61572300	0.41943400	0.33813500	-0.58935500	-0.16650400	-0.47998000	-0.75830100	0.01928700	-0.33056600
4758	47.57000000	-0.93286100	-0.13330100	0.09423800	-0.49389600	0.19970700	-0.74951200	-0.60058600	-0.48852500	-0.16210900	-0.75976600	-0.23120100	0.14794900	-0.40185500	0.70996100	0.03808600	-0.62426800	0.41259800	0.34057600	-0.59765600	-0.16650400	-0.47998000	-0.76586900	0.03662100	-0.29907200
4759	47.58000000	-0.93090800	-0.12475600	0.08276400	-0.49194300	0.20605500	-0.74511700	-0.58569300	-0.50097700	-0.13476600	-0.76171900	-0.23120100	0.14794900	-0.38208000	0.71875000	0.03735400	-0.63061500	0.40185500	0.33837900	-0.60424800	-0.15649400	-0.46997100	-0.78222700	0.05615200	-0.26318400
4760	47.59000000	-0.93310500	-0.12695300	0.08520500	-0.49194300	0.21240200	-0.75708000	-0.57666000	-0.51782200	-0.10522500	-0.76391600	-0.23120100	0.14331100	-0.36450200	0.72973600	0.03442400	-0.64526400	0.38427700	0.33178700	-0.61059600	-0.14648400	-0.46582000	-0.78930700	0.06909200	-0.23413100
4761	47.60000000	-0.93530300	-0.12695300	0.08960000	-0.49829100	0.20800800	-0.75683600	-0.57226600	-0.52417000	-0.08935500	-0.76171900	-0.23339800	0.15039100	-0.33789100	0.73852500	0.02465800	-0.66235400	0.36865200	0.31640600	-0.60864300	-0.14038100	-0.46386700	-0.79199200	0.08203100	-0.20043900
4762	47.61000000	-0.93530300	-0.12060500	0.08935500	-0.50219700	0.19116200	-0.74926800	-0.56152300	-0.53466800	-0.08447300	-0.76391600	-0.22705100	0.13647500	-0.32495100	0.74975600	0.01293900	-0.67309600	0.35766600	0.30981400	-0.61694300	-0.14648400	-0.45971700	-0.79711900	0.09936500	-0.15551800
4763	47.62000000	-0.93335000	-0.11621100	0.09130900	-0.50634800	0.18920900	-0.75610400	-0.55688500	-0.54711900	-0.08398400	-0.75756800	-0.23315400	0.13891600	-0.30493200	0.75854500	-0.00122100	-0.69238300	0.34228500	0.29638700	-0.61889600	-0.14868200	-0.45336900	-0.80053700	0.12548800	-0.11523400
4764	47.63000000	-0.93554700	-0.11425800	0.09545900	-0.50170900	0.17871100	-0.75341800	-0.54834000	-0.55322300	-0.09277300	-0.76171900	-0.23730500	0.14355500	-0.28295900	0.76513700	-0.01318400	-0.69628900	0.32714800	0.28100600	-0.61059600	-0.15258800	-0.45947300	-0.80322300	0.14062500	-0.06347700
4765	47.64000000	-0.93359400	-0.10986300	0.09545900	-0.50585900	0.17456100	-0.76269500	-0.55053700	-0.55127000	-0.09716800	-0.75512700	-0.24780300	0.15087900	-0.26733400	0.76757800	-0.02905300	-0.70239300	0.31396500	0.27441400	-0.61254900	-0.15673800	-0.44897500	-0.79736300	0.16015600	-0.02758800
4766	47.65000000	-0.93798800	-0.10791000	0.09521500	-0.50341800	0.16186500	-0.76684600	-0.54614300	-0.55737300	-0.10815400	-0.74853500	-0.26025400	0.16064500	-0.26074200	0.76977500	-0.03808600	-0.71289100	0.29858400	0.27221700	-0.61230500	-0.16088900	-0.45117200	-0.79345700	0.17553700	0.00146500
4767	47.66000000	-0.94018600	-0.10791000	0.09960900	-0.50293000	0.15356400	-0.76879900	-0.54614300	-0.55737300	-0.11035200	-0.73950200	-0.27880900	0.16357400	-0.25390600	0.76977500	-0.05395500	-0.72607400	0.29418900	0.25219700	-0.60839800	-0.15869100	-0.44897500	-0.78930700	0.18627900	0.02392600
4768	47.67000000	-0.93798800	-0.10571300	0.10180700	-0.50488300	0.14502000	-0.77075200	-0.53930700	-0.56787100	-0.12133800	-0.73095700	-0.28491200	0.17309600	-0.23852500	0.77197300	-0.05859400	-0.73217800	0.27880900	0.24560500	-0.61230500	-0.16699200	-0.44677700	-0.78930700	0.18627900	0.02612300
4769	47.68000000	-0.93579100	-0.10791000	0.09301800	-0.50463900	0.13671900	-0.77050800	-0.53735400	-0.56787100	-0.11669900	-0.72656200	-0.29101600	0.17797900	-0.23852500	0.77441400	-0.07226600	-0.74292000	0.27221700	0.23657200	-0.61010700	-0.16479500	-0.44897500	-0.78710900	0.19091800	0.01049800
4770	47.69000000	-0.93579100	-0.10571300	0.09082000	-0.50878900	0.12817400	-0.77710000	-0.53076200	-0.57421900	-0.10546900	-0.72436500	-0.29736300	0.18945300	-0.23657200	0.78100600	-0.09057600	-0.74462900	0.25903300	0.22778300	-0.61645500	-0.16699200	-0.45092800	-0.79638700	0.19531200	0.00585900
4771	47.70000000	-0.93798800	-0.10571300	0.09301800	-0.50634800	0.12207000	-0.77221700	-0.53710900	-0.57836900	-0.08740200	-0.72216800	-0.30151400	0.19433600	-0.24072300	0.77002000	-0.10546900	-0.75097700	0.24804700	0.22802700	-0.61840800	-0.16699200	-0.44677700	-0.79199200	0.19970700	0.00146500
4772	47.71000000	-0.93823200	-0.09936500	0.09277300	-0.50195300	0.11987300	-0.77221700	-0.53686500	-0.58056600	-0.07836900	-0.71582000	-0.30761700	0.20605500	-0.24951200	0.76342800	-0.11181600	-0.75488300	0.23291000	0.22583000	-0.61645500	-0.16918900	-0.43847700	-0.79003900	0.20410200	-0.01440400
4773	47.72000000	-0.93823200	-0.10156200	0.10156200	-0.51025400	0.10937500	-0.78125000	-0.52661100	-0.57836900	-0.06494100	-0.70947300	-0.31176800	0.21533200	-0.26074200	0.75903300	-0.12939500	-0.76342800	0.22412100	0.21704100	-0.62060500	-0.16918900	-0.44262700	-0.79028300	0.21313500	-0.03247100
4774	47.73000000	-0.94043000	-0.09301800	0.09692400	-0.50805700	0.10522500	-0.78100600	-0.53247100	-0.59106400	-0.05786100	-0.70288100	-0.32006800	0.21801800	-0.27832000	0.75463900	-0.13330100	-0.76293900	0.21118200	0.20361300	-0.62060500	-0.16699200	-0.44262700	-0.78833000	0.21752900	-0.05029300
4775	47.74000000	-0.94043000	-0.09521500	0.09692400	-0.50561500	0.09692400	-0.78759800	-0.53027300	-0.59301800	-0.04663100	-0.70483400	-0.32617200	0.22045900	-0.30053700	0.74365200	-0.12573200	-0.77368200	0.20214800	0.19921900	-0.62280300	-0.16503900	-0.43847700	-0.78613300	0.22216800	-0.07519500
4776	47.75000000	-0.94287100	-0.08886700	0.09668000	-0.50341800	0.09472700	-0.78515600	-0.52832000	-0.59106400	-0.05127000	-0.70239300	-0.33447300	0.23217800	-0.31811500	0.73486300	-0.11840800	-0.77783200	0.19580100	0.19262700	-0.62255900	-0.16918900	-0.43432600	-0.78418000	0.22680700	-0.10205100
